<svg width="145" height="126" viewBox="0 0 145 126" fill="none" xmlns="http://www.w3.org/2000/svg">
<path d="M84.8207 109.829C78.2474 112.851 70.9335 114.583 63.1667 114.583C34.7364 114.583 11.5834 91.5033 11.5834 63C11.5834 34.4915 34.6583 11.4166 63.1667 11.4166C91.6597 11.4166 114.667 34.5593 114.667 63C114.667 63.911 114.643 64.8168 114.597 65.7166L105.5 56C104.417 54.8333 102.917 54.25 101.5 54.25C100.167 54.25 98.9167 54.6666 98.0001 55.75C95.8334 57.8333 95.6667 61.25 97.7501 63.4166L116 83C118.25 85.5 122.167 85.5 124.5 83L142.75 63.4166C144.833 61.25 144.667 57.8333 142.5 55.75C140.333 53.6666 136.917 53.8333 134.833 56L125.427 66.0479C125.476 65.0355 125.5 64.0192 125.5 63C125.5 28.6072 97.6737 0.583298 63.1667 0.583298C28.6752 0.583298 0.750061 28.5084 0.750061 63C0.750061 97.4967 28.7637 125.417 63.1667 125.417C72.5666 125.417 81.4193 123.316 89.3461 119.671C92.0641 118.422 93.2545 115.205 92.0048 112.487C90.7551 109.769 87.5387 108.579 84.8207 109.829Z" fill="#505050"/>
</svg>
